# xmcd
#
# Track frame offsets:
#	150
#	17189
#	37581
#	54554
#	68765
#	84535
#	101289
#	115769
#	132623
#	149320
#	165456
#	181252
#	199151
#	211762
#	227872
#
# Disc length: 3216 seconds
#
# Revision: 1
# Processed by: cddbd v1.5.1PL0 Copyright (c) Steve Scherf et al.
# Submitted via: audiograbber 1.82.02
#
DISCID=c50c8e0f
DTITLE=Sing It Now Country Winter 2005 - SINC105
DYEAR=2005
DGENRE=Country
TTITLE0=Big and Rich - Holy Water
TTITLE1=Tim McGraw - Back When
TTITLE2=Toby Keith - Stays In Mexico
TTITLE3=Brad Paisley - Mud On The Tires
TTITLE4=Blake Shelton - Some Beach
TTITLE5=Lonestar - Mr. Mom
TTITLE6=Keith Bryant - Ridin' With The Legend
TTITLE7=Shania Twain and Billy Currington - Party For Two
TTITLE8=Reba McEntire - He Gets That From Me
TTITLE9=Phil Vassar - In A Real Love
TTITLE10=Gary Allan - Nothing On But The Radio
TTITLE11=Dierks Bentley - How Am I Doin'
TTITLE12=Josh Gracin - Nothin' To Lose
TTITLE13=Darryl Worley - Awful, Beautiful Life
TTITLE14=LeAnn Rimes - Nothin' Bout Love Makes Sense
EXTD=
EXTT0=
EXTT1=
EXTT2=
EXTT3=
EXTT4=
EXTT5=
EXTT6=
EXTT7=
EXTT8=
EXTT9=
EXTT10=
EXTT11=
EXTT12=
EXTT13=
EXTT14=
PLAYORDER=
